<svg viewBox="0 0 812 436" xmlns="http://www.w3.org/2000/svg" font-family="ui-sans-serif, system-ui, -apple-system, Segoe UI, Roboto, sans-serif">
<rect x="0" y="0" width="812" height="436" rx="14" fill="#ffffff"/>
<text x="40" y="44" font-size="22" font-weight="800" fill="#15151a">skilltree — roadmap</text>
<text x="40" y="68" font-size="13" fill="#5e5e66">A navigable tree over flat skill dirs.  ·  updated 2026-06-18</text>
<rect x="40" y="96" width="232" height="300" rx="11" fill="#eef4ff" stroke="#3b6fd4" stroke-width="1.6"/>
<text x="56" y="126" font-size="12" font-weight="800" letter-spacing=".08em" fill="#3b6fd4">v1</text>
<rect x="168" y="112" width="88" height="20" rx="10" fill="#3b6fd4"/>
<text x="212" y="126" text-anchor="middle" font-size="10.5" font-weight="700" fill="#ffffff">▸ in progress</text>
<text x="56" y="154" font-size="16" font-weight="800" fill="#15151a">Claude Code</text>
<text x="56" y="176" font-size="11.5" fill="#5e5e66">The tree, on the one substrate</text>
<text x="56" y="192" font-size="11.5" fill="#5e5e66">whose load mechanic it</text>
<text x="56" y="208" font-size="11.5" fill="#5e5e66">exploits. Shipping.</text>
<text x="56" y="234" font-size="11" fill="#15151a">•  Read-breadcrumb tree (materialize…</text>
<text x="56" y="254" font-size="11" fill="#15151a">•  Front half: discover → cohere → e…</text>
<text x="56" y="274" font-size="11" fill="#15151a">•  Decoherence watch → self-managed …</text>
<text x="56" y="294" font-size="11" fill="#15151a">•  tree / map / search subcommands (…</text>
<text x="56" y="314" font-size="11" fill="#15151a">•  Auto-load mechanic verified again…</text>
<text x="56" y="334" font-size="11" fill="#15151a">•  62 tests · CLI · site + Dev Log ·…</text>
<path d="M270 126 h20" stroke="#c4c4bf" stroke-width="2" marker-end="url(#a)" fill="none"/>
<rect x="290" y="96" width="232" height="300" rx="11" fill="#f6f6f5" stroke="#c4c4bf" stroke-width="1.6"/>
<text x="306" y="126" font-size="12" font-weight="800" letter-spacing=".08em" fill="#9a9a96">v2</text>
<rect x="418" y="112" width="88" height="20" rx="10" fill="#9a9a96"/>
<text x="462" y="126" text-anchor="middle" font-size="10.5" font-weight="700" fill="#ffffff">○ planned</text>
<text x="306" y="154" font-size="16" font-weight="800" fill="#15151a">Cross-format adapters</text>
<text x="306" y="176" font-size="11.5" fill="#5e5e66">Per-format adapters, NOT</text>
<text x="306" y="192" font-size="11.5" fill="#5e5e66">symlinks — the descent mechanic</text>
<text x="306" y="208" font-size="11.5" fill="#5e5e66">doesn't generalize.</text>
<text x="306" y="234" font-size="11" fill="#15151a">•  Verified: Codex resolves once at …</text>
<text x="306" y="254" font-size="11" fill="#15151a">•  Portable foundation: SKILL.md + .…</text>
<text x="306" y="274" font-size="11" fill="#15151a">•  The index/breadcrumb skill (metad…</text>
<text x="306" y="294" font-size="11" fill="#15151a">•  Codex adapter: simulate descent (…</text>
<text x="306" y="314" font-size="11" fill="#15151a">•  Gemini adapter: gate the eager lo…</text>
<path d="M520 126 h20" stroke="#c4c4bf" stroke-width="2" marker-end="url(#a)" fill="none"/>
<rect x="540" y="96" width="232" height="300" rx="11" fill="#f6f6f5" stroke="#c4c4bf" stroke-width="1.6"/>
<text x="556" y="126" font-size="12" font-weight="800" letter-spacing=".08em" fill="#9a9a96">v3</text>
<rect x="668" y="112" width="88" height="20" rx="10" fill="#9a9a96"/>
<text x="712" y="126" text-anchor="middle" font-size="10.5" font-weight="700" fill="#ffffff">○ planned</text>
<text x="556" y="154" font-size="16" font-weight="800" fill="#15151a">Chaining</text>
<text x="556" y="176" font-size="11.5" fill="#5e5e66">Compose skills into validated</text>
<text x="556" y="192" font-size="11.5" fill="#5e5e66">chains over the tree. After</text>
<text x="556" y="208" font-size="11.5" fill="#5e5e66">cross-format.</text>
<text x="556" y="234" font-size="11" fill="#15151a">•  Sequence skills into a checkable …</text>
<text x="556" y="254" font-size="11" fill="#15151a">•  Chains compose (a chain can chain…</text>
<text x="556" y="274" font-size="11" fill="#15151a">•  Gate the chain's form, not its co…</text>
<defs><marker id="a" viewBox="0 0 10 10" refX="8" refY="5" markerWidth="7" markerHeight="7" orient="auto"><path d="M0 0 L10 5 L0 10 z" fill="#c4c4bf"/></marker></defs>
</svg>
